<svg width="256" height="256" viewBox="0 0 256 256" fill="none" xmlns="http://www.w3.org/2000/svg">
<rect width="256" height="256" rx="64" fill="#111827"/>
<rect x="36" y="36" width="184" height="184" rx="44" fill="url(#paint0_linear)"/>
<path d="M84 91C84 82.1634 91.1634 75 100 75H156C164.837 75 172 82.1634 172 91V165C172 173.837 164.837 181 156 181H100C91.1634 181 84 173.837 84 165V91Z" fill="white" fill-opacity="0.92"/>
<path d="M100 67C100 62.5817 103.582 59 108 59C112.418 59 116 62.5817 116 67V83H100V67Z" fill="#F97316"/>
<path d="M140 67C140 62.5817 143.582 59 148 59C152.418 59 156 62.5817 156 67V83H140V67Z" fill="#F97316"/>
<path d="M84 103H172V119H84V103Z" fill="#F97316"/>
<path d="M108 145C108 133.954 116.954 125 128 125C139.046 125 148 133.954 148 145C148 156.046 139.046 165 128 165C116.954 165 108 156.046 108 145Z" fill="#111827"/>
<path d="M128 134C130.761 134 133 136.239 133 139V145.764L137.618 148.392C140.017 149.756 140.853 152.809 139.489 155.208C138.125 157.607 135.072 158.443 132.673 157.079L125.5 152.998C123.934 152.107 123 150.443 123 148.642V139C123 136.239 125.239 134 128 134Z" fill="white"/>
<defs>
<linearGradient id="paint0_linear" x1="56" y1="48" x2="212" y2="212" gradientUnits="userSpaceOnUse">
<stop stop-color="#FB923C"/>
<stop offset="1" stop-color="#EA580C"/>
</linearGradient>
</defs>
</svg>
